<svg width="130" height="130" viewBox="0 0 130 130" fill="none" xmlns="http://www.w3.org/2000/svg">
<path d="M64.6523 0L73.3996 12.2329L85.6449 3.50304L89.9462 17.9134L104.363 13.6326L103.752 28.6587L118.777 29.2908L113.32 43.3045L127.326 48.7811L117.615 60.2637L129.084 69.9912L116.17 77.6984L123.859 90.6228L109.143 93.7194L112.219 108.44L97.2941 106.591L95.4234 121.512L81.9082 114.917L75.2937 128.423L64.6523 117.797L54.0109 128.423L47.3964 114.917L33.8812 121.512L32.0105 106.591L17.0861 108.44L20.1618 93.7194L5.44545 90.6228L13.1343 77.6984L0.220818 69.9912L11.6896 60.2637L1.97834 48.7811L15.9843 43.3045L10.5276 29.2908L25.5528 28.6587L24.942 13.6326L39.3585 17.9134L43.6597 3.50304L55.9051 12.2329L64.6523 0Z" fill="#1BB2DE"/>
<path d="M54.5677 58.0527C54.1764 57.2134 53.9892 56.39 54.0061 55.5825C54.023 54.775 54.2499 54.0504 54.6869 53.4088C55.1291 52.7647 55.7515 52.2555 56.5543 51.8812C57.6959 51.3488 58.7892 51.2642 59.8343 51.6273C60.8846 51.9879 61.7309 52.7482 62.3734 53.9083L62.6589 54.4796C63.2641 55.7776 63.388 56.989 63.0305 58.114C62.6705 59.2338 61.8806 60.0781 60.6608 60.6469C59.4411 61.2157 58.284 61.2793 57.1896 60.8377C56.1004 60.3936 55.2423 59.4992 54.6151 58.1543L54.5677 58.0527ZM56.904 57.1631C57.2783 57.9659 57.7163 58.5105 58.218 58.797C58.7172 59.0782 59.2483 59.0876 59.8113 58.8251C60.3586 58.5698 60.6889 58.162 60.802 57.6016C60.9126 57.0359 60.7528 56.2918 60.3226 55.3691C59.9555 54.582 59.5174 54.0438 59.0081 53.7546C58.4988 53.4653 57.9652 53.4507 57.4075 53.7108C56.8549 53.9685 56.5284 54.3841 56.4278 54.9578C56.3247 55.5262 56.4835 56.2613 56.904 57.1631ZM69.6709 48.1637L66.9577 49.4289L70.0569 56.0751L67.7893 57.1325L64.6901 50.4862L62.0238 51.7295L61.1779 49.9155L68.825 46.3496L69.6709 48.1637ZM41.9162 92.3682L34.1128 96.007L33.3908 94.4588L35.2433 88.8163C35.4913 88.028 35.6391 87.372 35.6869 86.8484C35.7399 86.3224 35.6801 85.8743 35.5075 85.5042C35.2717 84.9985 34.9592 84.6619 34.5701 84.4943C34.1786 84.3215 33.7456 84.3457 33.2713 84.5669C32.7604 84.8051 32.4391 85.1708 32.3073 85.6638C32.1782 86.1491 32.2474 86.6785 32.5147 87.2519L30.2472 88.3093C29.9239 87.616 29.7928 86.9061 29.8538 86.1796C29.92 85.4506 30.1801 84.7835 30.6341 84.1784C31.0857 83.568 31.6946 83.0842 32.4608 82.7268C33.6337 82.1799 34.6746 82.0373 35.5835 82.2988C36.4976 82.558 37.1941 83.201 37.6729 84.2279C37.9354 84.7909 38.0569 85.4323 38.0372 86.1523C38.0175 86.8722 37.8343 87.7858 37.4876 88.8931L36.1719 92.8288L41.0667 90.5464L41.9162 92.3682ZM45.0214 84.1044L42.9801 78.012L49.3605 75.0368L50.2392 76.9212L45.7119 79.0323L46.5716 81.6109C46.9749 81.0739 47.4788 80.6644 48.0835 80.3824C49.1677 79.8768 50.1742 79.8168 51.1029 80.2024C52.0315 80.588 52.7778 81.3855 53.3418 82.5949C53.6845 83.3299 53.8356 84.0622 53.7951 84.7919C53.7573 85.5139 53.5245 86.1714 53.0966 86.7644C52.6663 87.3522 52.0575 87.8296 51.2704 88.1967C50.5823 88.5175 49.8794 88.6772 49.1615 88.6756C48.4412 88.6687 47.7911 88.4927 47.2113 88.1475C46.6367 87.7999 46.1883 87.3077 45.866 86.6711L48.1023 85.6283C48.3704 86.0808 48.7072 86.3743 49.1126 86.5089C49.5209 86.6358 49.9543 86.5924 50.4131 86.3785C50.9239 86.1403 51.2324 85.7743 51.3385 85.2806C51.4422 84.7816 51.3373 84.1959 51.0237 83.5235C50.7223 82.8771 50.3324 82.4561 49.854 82.2603C49.3756 82.0645 48.8445 82.1028 48.2606 82.375C47.7237 82.6254 47.3541 82.9691 47.1517 83.4061L47.0276 83.7115L45.0214 84.1044ZM61.1783 78.1696L62.4684 77.568L63.318 79.3898L62.0278 79.9914L63.1764 82.4545L60.9166 83.5082L59.7681 81.0452L55.1001 83.2219L54.3349 81.8462L55.5845 72.1345L57.8676 71.0698L61.1783 78.1696ZM56.4008 80.3974L58.9186 79.2233L57.0445 75.2043L57.0162 75.5316L56.4008 80.3974ZM63.4119 75.5288L61.3706 69.4364L67.751 66.4612L68.6297 68.3456L64.1024 70.4567L64.9622 73.0353C65.3654 72.4982 65.8693 72.0887 66.474 71.8068C67.5583 71.3012 68.5647 71.2412 69.4934 71.6268C70.4221 72.0124 71.1683 72.8099 71.7323 74.0192C72.075 74.7542 72.2261 75.4866 72.1856 76.2162C72.1479 76.9383 71.915 77.5958 71.4871 78.1888C71.0568 78.7766 70.4481 79.254 69.6609 79.621C68.9729 79.9419 68.2699 80.1015 67.552 80.0999C66.8317 80.0931 66.1817 79.9171 65.6018 79.5719C65.0272 79.2242 64.5788 78.7321 64.2565 78.0954L66.4928 77.0527C66.7609 77.5051 67.0977 77.7987 67.5031 77.9333C67.9114 78.0602 68.3449 78.0167 68.8036 77.8028C69.3144 77.5646 69.6229 77.1986 69.729 76.7049C69.8327 76.206 69.7278 75.6203 69.4142 74.9479C69.1128 74.3015 68.7229 73.8804 68.2445 73.6846C67.7661 73.4889 67.235 73.5271 66.6512 73.7994C66.1142 74.0497 65.7446 74.3934 65.5423 74.8305L65.4181 75.1359L63.4119 75.5288ZM84.2061 70.8014L81.7196 71.9608L82.427 73.4777L80.0812 74.5716L79.3739 73.0547L77.7866 73.7948L76.9006 71.8948L78.4879 71.1546L78.2108 70.5604L76.6235 71.3005L75.7375 69.4005L77.3248 68.6603L74.7725 63.187L79.1981 61.1233C80.053 60.7246 80.8754 60.5284 81.6651 60.5345C82.4549 60.5407 83.1608 60.7478 83.7826 61.1559C84.4072 61.5564 84.8897 62.1215 85.23 62.8513C85.755 63.9772 85.7863 65.0447 85.3239 66.0536C84.8667 67.06 83.9578 67.8805 82.5973 68.5149L80.5565 69.4665L80.8336 70.0608L83.3201 68.9013L84.2061 70.8014ZM79.6705 67.5665L81.6957 66.6222C83.0093 66.0096 83.3975 65.1273 82.8603 63.9753C82.6051 63.428 82.2329 63.0653 81.7437 62.8872C81.2521 62.704 80.7105 62.7471 80.1191 63.0165L78.0079 64.001L79.6705 67.5665ZM91.4212 70.4736L89.7401 71.2575L88.1666 56.9412L89.8477 56.1573L91.4212 70.4736ZM100.153 61.966L99.6638 55.1402L102.494 53.8203L106.439 62.2806L104.18 63.3343L101.759 58.1424L102.155 64.2786L100.638 64.986L96.2707 60.8062L98.6516 65.9121L96.3919 66.9658L92.4468 58.5055L95.2538 57.1966L100.153 61.966ZM110.529 54.0244L105.681 56.285L105.178 55.2059L106.485 52.15C106.657 51.7584 106.755 51.424 106.778 51.1468C106.807 50.867 106.793 50.6672 106.737 50.5474C106.533 50.1095 106.183 50.006 105.688 50.2369C105.427 50.3585 105.256 50.5365 105.175 50.771C105.099 51.0031 105.119 51.2416 105.233 51.4866L103.622 52.2377C103.34 51.6331 103.325 51.0215 103.576 50.4031C103.832 49.7822 104.312 49.3077 105.016 48.9796C105.787 48.6198 106.461 48.5122 107.036 48.6565C107.613 48.7933 108.047 49.1718 108.336 49.7921C108.506 50.157 108.568 50.5343 108.521 50.9242C108.475 51.314 108.276 51.867 107.924 52.583L107.186 54.0218L109.931 52.742L110.529 54.0244Z" fill="white"/>
</svg>
