<svg width="60" height="60" fill="none" xmlns="http://www.w3.org/2000/svg"><path d="M53.334 10H6.666a3.333 3.333 0 00-3.333 3.333v33.334A3.333 3.333 0 006.667 50h25l.95-1.167 1.55-1.9-.15-.266H6.667V13.333h46.666V27.6a14.015 14.015 0 013.334 3.017V13.333A3.333 3.333 0 0053.333 10z" fill="#1BB2DE"/><path d="M11.666 20H40v2.667H11.666V20zm0 6.666H30v2.667H11.666v-2.666zm0 11.668h16.667V41H11.667v-2.666zm34.1-9.617a10.6 10.6 0 00-7.333 18.334L35.199 51l1.5 6.016 6.1-7.433c1.931.57 3.986.57 5.917 0l6.1 7.433 1.5-6.017-3.233-3.95a10.6 10.6 0 00-7.334-18.333h.017zm0 17.8a7.184 7.184 0 117.283-7.183 7.25 7.25 0 01-7.283 7.183z" fill="#1BB2DE"/></svg>