<svg width="60" height="60" fill="none" xmlns="http://www.w3.org/2000/svg"><path d="M50.362 20.675l3.908-3.908-3.535-3.535-4.27 4.268A17.367 17.367 0 0037.5 15C27.852 15 20 22.85 20 32.5S27.852 50 37.5 50C47.147 50 55 42.15 55 32.5a17.415 17.415 0 00-4.638-11.825zM37.5 45C30.607 45 25 39.392 25 32.5 25 25.607 30.607 20 37.5 20 44.392 20 50 25.607 50 32.5 50 39.392 44.392 45 37.5 45z" fill="#1BB2DE"/><path d="M35 25h5v10h-5V25zM32.5 7.5h10v5h-10v-5zM7.5 20h10v5h-10v-5zm0 20h10v5h-10v-5zM5 30h9.975v5H5v-5z" fill="#1BB2DE"/></svg>