<svg width="102" height="40" fill="none" xmlns="http://www.w3.org/2000/svg"><path fill-rule="evenodd" clip-rule="evenodd" d="M18.421 2.963H0V40h18.421v-3.704H3.684V6.666h14.737V2.964z" fill="#F0CE76"/><path fill-rule="evenodd" clip-rule="evenodd" d="M18.421 2.963h18.42V40h-18.42v-3.704h14.737V6.666H18.42V2.964z" fill="#F0CE76"/><path d="M3.684 6.667h14.737v29.63H3.684V6.666z" fill="#F0CE76"/><path d="M5.895 8.889h11.42V20.37H5.896V8.89zm0 13.704h11.42v11.481H5.896V22.593z" fill="#F8F8F8"/><path d="M33.158 6.667H18.42v29.63h14.737V6.666z" fill="#F0CE76"/><path d="M30.947 8.889h-11.42V20.37h11.42V8.89zm0 13.704h-11.42v11.481h11.42V22.593z" fill="#F8F8F8"/><path fill-rule="evenodd" clip-rule="evenodd" d="M26.453 0h1.105c0 3.477 2.804 6.296 6.263 6.296V8.52c-3.46 0-6.263 2.819-6.263 6.296h-1.105V0z" fill="#00D9E0"/><path fill-rule="evenodd" clip-rule="evenodd" d="M26.453 0h-1.106c0 3.477-2.804 6.296-6.263 6.296V8.52c3.46 0 6.263 2.819 6.263 6.296h1.105V0z" fill="#55FBFF"/><path fill-rule="evenodd" clip-rule="evenodd" d="M32.42 12.518h1.106c0 3.478 2.804 6.297 6.263 6.297v2.222c-3.459 0-6.263 2.819-6.263 6.296h-1.105V12.52z" fill="#00D9E0"/><path fill-rule="evenodd" clip-rule="evenodd" d="M32.42 12.518h-1.104c0 3.478-2.804 6.297-6.264 6.297v2.222c3.46 0 6.264 2.819 6.264 6.296h1.105V12.52z" fill="#55FBFF"/><path d="M51.966 18.234h-5.192l-.906 2.951H41.82l5.764-15.798h3.562l5.807 15.798h-4.07l-.917-2.951zm-4.285-2.94h3.378l-1.694-5.48-1.684 5.48zm14.104.531v5.36h-3.788V5.387h6.271c1.202 0 2.263.224 3.184.672.928.442 1.644 1.075 2.148 1.9.51.817.766 1.746.766 2.788 0 1.54-.55 2.774-1.651 3.7-1.094.919-2.598 1.378-4.512 1.378h-2.418zm0-2.94h2.483c.734 0 1.292-.185 1.673-.554.389-.369.583-.89.583-1.563 0-.737-.198-1.327-.594-1.768-.396-.441-.935-.666-1.619-.673h-2.526v4.557zm22.837-4.558h-4.717v12.858h-3.788V8.327h-4.63v-2.94h13.135v2.94zM56.348 31.241c0 1.54-.284 2.904-.853 4.09-.568 1.187-1.377 2.102-2.428 2.746-1.044.637-2.234.955-3.573.955-1.338 0-2.525-.308-3.562-.922-1.036-.623-1.845-1.509-2.428-2.659-.576-1.15-.878-2.47-.907-3.96v-.89c0-1.548.28-2.912.842-4.09.569-1.187 1.378-2.102 2.429-2.746 1.057-.644 2.26-.966 3.605-.966 1.33 0 2.518.319 3.562.955 1.043.637 1.852 1.544 2.428 2.724.583 1.171.878 2.517.885 4.036v.727zm-3.853-.662c0-1.57-.263-2.76-.788-3.57-.518-.817-1.263-1.226-2.234-1.226-1.9 0-2.904 1.432-3.012 4.297l-.01 1.161c0 1.548.255 2.738.766 3.57.51.832 1.27 1.248 2.277 1.248.957 0 1.695-.409 2.213-1.226.518-.818.78-1.993.788-3.527v-.727zm11.255 1.986h-1.792v6.25H58.17V23.016h3.788v6.11h1.457l3.023-6.11h4.587l-4.318 7.292 4.857 8.507h-4.479l-3.335-6.25zm21.779 6.25h-3.767v-6.597h-5.58v6.597h-3.79V23.016h3.79v6.272h5.58v-6.272h3.767v15.799zm11.417-2.952h-5.192l-.907 2.952H86.8l5.764-15.799h3.561l5.807 15.799h-4.069l-.917-2.952zm-4.285-2.94h3.378l-1.695-5.48-1.683 5.48z" fill="#fff"/></svg>