<svg width="108" height="42" fill="none" xmlns="http://www.w3.org/2000/svg"><path fill-rule="evenodd" clip-rule="evenodd" d="M19.342 3.111H0V42h19.342v-3.889H3.868V7h15.474V3.111zm0 0h19.342V42H19.342v-3.889h15.474V7H19.342V3.111z" fill="#F0CE76"/><path d="M3.868 7h15.474v31.111H3.868V7z" fill="#F0CE76"/><path d="M6.19 9.333h11.99V21.39H6.19V9.333zm0 14.389h11.99v12.056H6.19V23.722z" fill="#F8F8F8"/><path d="M34.816 7H19.342v31.111h15.474V7z" fill="#F0CE76"/><path d="M32.495 9.333H20.503V21.39h11.992V9.333zm0 14.389H20.503v12.056h11.992V23.722z" fill="#F8F8F8"/><path fill-rule="evenodd" clip-rule="evenodd" d="M27.775 0h1.16c0 3.651 2.945 6.611 6.577 6.611v2.333c-3.632 0-6.576 2.96-6.576 6.612h-1.16V0z" fill="#00D9E0"/><path fill-rule="evenodd" clip-rule="evenodd" d="M27.775 0h-1.16c0 3.651-2.945 6.611-6.577 6.611v2.333c3.632 0 6.577 2.96 6.577 6.612h1.16V0z" fill="#55FBFF"/><path fill-rule="evenodd" clip-rule="evenodd" d="M34.042 13.144h1.16c0 3.652 2.945 6.612 6.577 6.612v2.333c-3.632 0-6.577 2.96-6.577 6.611h-1.16V13.144z" fill="#00D9E0"/><path fill-rule="evenodd" clip-rule="evenodd" d="M34.042 13.144h-1.16c0 3.652-2.945 6.612-6.577 6.612v2.333c3.632 0 6.577 2.96 6.577 6.611h1.16V13.144z" fill="#55FBFF"/><path d="M54.564 19.145h-5.45l-.953 3.1h-4.25l6.052-16.59h3.74l6.097 16.59h-4.272l-.964-3.1zm-4.499-3.087h3.547l-1.779-5.754-1.768 5.754zm14.81.558v5.628h-3.978V5.656h6.584c1.262 0 2.377.235 3.344.706.974.464 1.726 1.128 2.255 1.994.537.858.805 1.834.805 2.928 0 1.618-.578 2.913-1.734 3.885-1.149.965-2.728 1.447-4.737 1.447h-2.54zm0-3.087h2.606c.771 0 1.357-.194 1.757-.581.408-.388.612-.935.612-1.641 0-.775-.208-1.394-.623-1.857-.416-.463-.982-.699-1.7-.707h-2.652v4.786zm23.978-4.786h-4.952v13.501h-3.978v-13.5H75.06V5.655h13.792v3.087zm-29.687 24.06c0 1.618-.299 3.05-.896 4.295-.597 1.246-1.447 2.207-2.55 2.883-1.095.668-2.346 1.002-3.751 1.002-1.405 0-2.652-.322-3.74-.968-1.088-.653-1.938-1.584-2.55-2.791-.604-1.208-.922-2.594-.952-4.159v-.934c0-1.626.295-3.057.884-4.295.597-1.246 1.447-2.207 2.55-2.883 1.11-.676 2.372-1.014 3.785-1.014 1.398 0 2.645.334 3.74 1.003 1.096.668 1.946 1.621 2.55 2.86.612 1.23.922 2.643.93 4.238v.763zm-4.046-.695c0-1.648-.276-2.898-.828-3.748-.544-.859-1.326-1.288-2.346-1.288-1.994 0-3.048 1.504-3.162 4.512l-.01 1.22c0 1.624.267 2.874.804 3.747.536.874 1.333 1.31 2.391 1.31 1.005 0 1.78-.428 2.323-1.287.544-.858.82-2.092.828-3.703v-.763zm11.818 2.085h-1.882v6.563h-3.978V24.167h3.978v6.414h1.53l3.174-6.414h4.816l-4.533 7.656 5.1 8.933h-4.704l-3.501-6.563zm22.867 6.563H85.85v-6.928h-5.86v6.928h-3.977V24.167h3.978v6.585h5.859v-6.585h3.955v16.589zm11.988-3.099h-5.451l-.952 3.099h-4.25l6.052-16.589h3.74l6.097 16.589h-4.273l-.963-3.1zm-4.5-3.088h3.548l-1.78-5.754-1.767 5.754z" fill="#02303F"/></svg>