<svg width="160" height="162" fill="none" xmlns="http://www.w3.org/2000/svg"><path d="M47.594 6.412l16.036 9.764L73.326 0l12.027 14.492L99.724 2.37l6.715 17.649 17.491-6.754.675 18.893 18.716-.654-5.439 18.091 17.913 5.517-10.963 15.328L160 81.529l-15.299 10.904 10.78 15.46-17.977 5.299 5.223 18.156-18.707-.882-.9 18.884-17.41-6.965-6.924 17.566-14.227-12.295L72.36 162l-9.5-16.292-16.152 9.568-3.746-18.524-18.355 3.755 2.415-18.748-18.567-2.464 8.314-16.941L0 93.936 13.312 80.64.16 67.18l16.868-8.214-8.112-17.04 18.596-2.24-2.192-18.775 18.309 3.977 3.966-18.477z" fill="#1BB2DE"/></svg>