<svg width="130" height="130" fill="none" xmlns="http://www.w3.org/2000/svg"><path d="M64.652 0L73.4 12.233l12.245-8.73 4.301 14.41 14.417-4.28-.611 15.026 15.025.632-5.457 14.013 14.006 5.477-9.711 11.483 11.469 9.727-12.914 7.707 7.689 12.925-14.716 3.096 3.076 14.721-14.925-1.849-1.87 14.921-13.516-6.595-6.614 13.506-10.642-10.626-10.641 10.626-6.615-13.506-13.515 6.595-1.87-14.921-14.925 1.849 3.076-14.72-14.717-3.097 7.69-12.925L.22 69.991l11.469-9.727L1.978 48.78l14.006-5.477-5.456-14.013 15.025-.632-.611-15.026 14.416 4.28 4.302-14.41 12.245 8.73L64.652 0z" fill="#1BB2DE"/><path d="M54.568 58.053c-.392-.84-.579-1.663-.562-2.47a3.923 3.923 0 01.68-2.174c.443-.644 1.066-1.154 1.868-1.528 1.142-.532 2.235-.617 3.28-.254 1.05.36 1.897 1.121 2.54 2.281l.285.572c.605 1.298.729 2.509.372 3.634-.36 1.12-1.15 1.964-2.37 2.533-1.22.569-2.377.632-3.471.19-1.09-.443-1.948-1.338-2.575-2.683l-.047-.101zm2.336-.89c.374.803.812 1.348 1.314 1.634.5.281 1.03.29 1.593.028.548-.255.878-.663.991-1.223.11-.566-.05-1.31-.48-2.233-.367-.787-.805-1.325-1.314-1.614-.51-.29-1.043-.304-1.6-.044-.553.258-.88.673-.98 1.247-.103.568.056 1.303.476 2.205zm12.767-9l-2.713 1.266 3.099 6.646-2.268 1.057-3.099-6.646-2.666 1.244-.846-1.814 7.647-3.566.846 1.814zM41.916 92.369l-7.803 3.639-.722-1.548 1.852-5.643c.248-.788.396-1.444.444-1.968.053-.526-.007-.974-.18-1.344-.235-.505-.548-.842-.937-1.01-.391-.172-.824-.148-1.299.073-.51.238-.832.604-.964 1.097-.129.485-.06 1.014.208 1.588l-2.268 1.057a4.144 4.144 0 01-.393-2.13 3.86 3.86 0 01.78-2c.452-.611 1.06-1.095 1.827-1.452 1.173-.547 2.214-.69 3.123-.428.914.259 1.61.902 2.089 1.929.262.563.384 1.204.364 1.924-.02.72-.203 1.634-.55 2.741l-1.315 3.936 4.895-2.283.85 1.822zm3.105-8.264l-2.04-6.092 6.38-2.975.878 1.884-4.527 2.111.86 2.579a3.954 3.954 0 011.511-1.229c1.085-.505 2.091-.565 3.02-.18.928.386 1.675 1.183 2.239 2.393.343.735.494 1.467.453 2.197a3.63 3.63 0 01-.698 1.972c-.43.588-1.04 1.066-1.827 1.433-.688.32-1.39.48-2.109.479a3.813 3.813 0 01-1.95-.529 3.56 3.56 0 01-1.345-1.476l2.236-1.043c.268.453.605.746 1.01.88.409.128.842.084 1.301-.13.51-.238.82-.604.926-1.097.103-.5-.002-1.085-.315-1.758-.302-.646-.692-1.067-1.17-1.263-.478-.196-1.01-.157-1.593.115-.537.25-.907.594-1.11 1.031l-.123.305-2.007.393zm16.157-5.934l1.29-.602.85 1.822-1.29.601 1.148 2.463-2.26 1.054-1.148-2.463-4.668 2.177-.765-1.376 1.25-9.712 2.283-1.064 3.31 7.1zm-4.777 2.227l2.518-1.174-1.874-4.019-.029.328-.615 4.865zm7.01-4.868l-2.04-6.093 6.38-2.975.879 1.885-4.528 2.11.86 2.58a3.951 3.951 0 011.512-1.23c1.084-.505 2.09-.565 3.02-.18.928.386 1.674 1.184 2.238 2.393.343.735.494 1.468.454 2.197a3.63 3.63 0 01-.699 1.973c-.43.588-1.039 1.065-1.826 1.432-.688.32-1.391.48-2.109.479a3.812 3.812 0 01-1.95-.528 3.56 3.56 0 01-1.346-1.477l2.237-1.042c.268.452.605.746 1.01.88.408.127.842.084 1.3-.13.511-.238.82-.604.926-1.098.104-.499-.001-1.085-.315-1.757-.301-.646-.691-1.068-1.17-1.263-.478-.196-1.009-.158-1.593.114-.537.25-.906.594-1.109 1.031l-.124.306-2.006.393zm20.796-4.73l-2.486 1.16.707 1.517-2.346 1.094-.707-1.517-1.587.74-.886-1.9 1.587-.74-.277-.595-1.587.74-.886-1.9 1.587-.74-2.553-5.473 4.426-2.064c.855-.398 1.677-.595 2.467-.588.79.006 1.496.213 2.118.62.624.401 1.107.966 1.447 1.696.525 1.126.556 2.194.094 3.203-.457 1.006-1.366 1.826-2.727 2.46l-2.04.953.277.594 2.486-1.16.886 1.9zm-4.535-3.234l2.025-.945c1.313-.612 1.701-1.495 1.164-2.647-.255-.547-.627-.91-1.116-1.088-.492-.183-1.034-.14-1.625.13L78.008 64l1.663 3.566zm11.75 2.907l-1.68.783-1.574-14.316 1.68-.784 1.574 14.317zm8.732-8.508l-.49-6.826 2.831-1.32 3.945 8.46-2.259 1.054-2.421-5.192.396 6.137-1.517.707-4.367-4.18 2.38 5.106-2.26 1.054-3.944-8.46 2.807-1.31 4.899 4.77zm10.376-7.942l-4.848 2.261-.503-1.08 1.307-3.055c.172-.392.27-.726.293-1.003.029-.28.015-.48-.041-.6-.204-.438-.554-.541-1.049-.31-.261.121-.432.3-.513.534a.947.947 0 00.058.716l-1.611.75a2.206 2.206 0 01-.046-1.834c.256-.62.736-1.095 1.44-1.423.771-.36 1.445-.468 2.02-.323.577.136 1.011.515 1.3 1.135.17.365.232.742.185 1.132-.046.39-.245.943-.597 1.659l-.738 1.439 2.745-1.28.598 1.282z" fill="#fff"/></svg>